# xmcd
#
# Track frame offsets:
#	150
#	10346
#	22074
#	36551
#	50430
#	62650
#	75266
#	86920
#	98795
#	110384
#	119422
#	130835
#	141864
#	154010
#	166645
#	178738
#
# Disc length: 2518 seconds
#
# Revision: 1
# Processed by: cddbd v1.5.2PL0 Copyright (c) Steve Scherf et al.
# Submitted via: audiograbber 1.83.01
#
DISCID=cf09d410
DTITLE=Various Artist - Golden Age of Country: Hillbilly Heaven
DYEAR=2009
DGENRE=Country
TTITLE0=Merle Haggard and The Strangers - Mama Tried
TTITLE1=George Jones - She Thinks I Still Care
TTITLE2=Tex Ritter: I Dreamed of a Hill - Billy Heaven
TTITLE3=Willie Nelson - Funny How Time Slips Away
TTITLE4=Glen Campbell - Galveston
TTITLE5=The Louvin Brothers - My Baby's Gone
TTITLE6=Ferlin Husky and Jean Shepard - A Dear John Letter
TTITLE7=Tennessee Ernie Ford - The Shot Gun Boogie
TTITLE8=Hank Thompson and His Brazos Valley Boys - Squaws Along the Yukon
TTITLE9=Faron Young - Alone With You
TTITLE10=Tommy Collins - You Better Not Do That
TTITLE11=Ferlin Husky - Gone
TTITLE12=Del Reeves - Girl on the Billboard
TTITLE13=Walter Brennan With The Johnny Mann Singers - Old Rivers
TTITLE14=Wanda Jackson - Right or Wrong
TTITLE15=Sonny James - You're the Only World I Know
EXTD=
EXTT0=
EXTT1=
EXTT2=
EXTT3=
EXTT4=
EXTT5=
EXTT6=
EXTT7=
EXTT8=
EXTT9=
EXTT10=
EXTT11=
EXTT12=
EXTT13=
EXTT14=
EXTT15=
PLAYORDER=
